<?xml version="1.0" encoding="UTF-8"?>
<svg xmlns="http://www.w3.org/2000/svg" xmlns:xlink="http://www.w3.org/1999/xlink" viewBox="260 0 540 455">
  <defs>
    <linearGradient id="linear-gradient-5" x1="317.99" y1="334.9" x2="678.57" y2="222.87" gradientUnits="userSpaceOnUse">
      <stop offset="0" stop-color="#0162fe"/>
      <stop offset=".13" stop-color="#006cfe"/>
      <stop offset=".35" stop-color="#008afe"/>
      <stop offset=".5" stop-color="#00a1fe"/>
      <stop offset=".81" stop-color="#00c8fa"/>
      <stop offset=".89" stop-color="#00d3f9"/>
    </linearGradient>
    <linearGradient id="linear-gradient-6" x1="354.44" y1="449.02" x2="596.61" y2="373.78" xlink:href="#linear-gradient-5"/>
    <linearGradient id="linear-gradient-7" x1="256.01" y1="216" x2="711.07" y2="74.62" xlink:href="#linear-gradient-5"/>
    <linearGradient id="linear-gradient-8" x1="686.64" y1="306.69" x2="773.8" y2="279.61" xlink:href="#linear-gradient-5"/>
  </defs>
  <g id="icon-monogram">
    <path d="M621.52,97.81l-52-.13-41.4,91.18-89.7-.12,41.35-91.05h-51.64s-41.41,90.82-41.41,90.82l-61.16,134.85,51.22.07,40.22-87.95,90.05.21-39.72,87.61,50.66.22,103.54-225.72ZM578.93,372.97l79.25-164.88h-55.7s-71.86,150.17-71.86,150.17l-28.21,59.84,201.05.02,22.64-45.12-147.17-.04Z" fill="url(#linear-gradient-5)"/>
  </g>
  <g id="icon-ring">
    <path d="M567.12,444.88l51.84-1.06c-49.42,21.65-104.92,26.18-157.14,12.52-48.53-12.7-90.82-41.21-122.43-79.86,1.01-.74,3.26-1.97,4.82-2.83,42.85,42.33,98,68.27,158.14,73.9,21.98,1.52,42.63.54,64.78-2.66Z" fill="url(#linear-gradient-6)"/>
    <path d="M742.79,209.44c1.35-.12,3.1-.35,4.7-.55-4.77-72.61-44.86-138.03-106.83-175.32-90.85-54.67-208.04-41.34-285.67,31.09-36.3,33.86-59.38,80.52-66.43,129.99-11.91,3.39-19.19,14.38-16.88,26.05,2.2,11.18,12.5,19.09,24.44,17.81,10.2-1.1,18.12-9.2,19.53-18.56,1.5-9.97-3.36-19.74-12.8-23.94,2.17-17.52,7.07-33.71,13.98-50.22C362.48,36.58,491.82-12.85,600.62,28.27c77.63,29.34,132.37,98.77,142.17,181.17Z" fill="url(#linear-gradient-7)"/>
    <path d="M719.48,351.83c12.73-23.32,22.2-47.3,26.67-73.4,11.38-1.43,19.21-10.16,19.72-20.38.55-10.87-6.7-20.21-17.4-22.55-11.33-2.47-21.93,3.02-25.68,13.19-3.8,10.3-.6,21.66,10.04,27.11l-7.55,29.66c-5.76,16.45-13.43,30.87-21.96,46.26l16.15.11Z" fill="url(#linear-gradient-8)"/>
  </g>
</svg>
