<?xml version="1.0" encoding="UTF-8"?>
<svg xmlns="http://www.w3.org/2000/svg" xmlns:xlink="http://www.w3.org/1999/xlink" viewBox="0 0 1053.58 666.05">
  <defs>
    <linearGradient id="linear-gradient" x1="908.92" y1="590.43" x2="1066.33" y2="521.91" gradientUnits="userSpaceOnUse">
      <stop offset="0" stop-color="#005dfb"/>
      <stop offset=".03" stop-color="#0083fc"/>
      <stop offset=".4" stop-color="#00b4ff"/>
      <stop offset=".49" stop-color="#0091fe"/>
      <stop offset=".58" stop-color="#0078fe"/>
      <stop offset=".6" stop-color="#007dfd"/>
      <stop offset=".83" stop-color="#00b6fd"/>
      <stop offset=".94" stop-color="#00cdfd"/>
    </linearGradient>
    <linearGradient id="linear-gradient-2" x1="819.07" y1="602.8" x2="890.97" y2="547.28" gradientUnits="userSpaceOnUse">
      <stop offset="0" stop-color="#015fff"/>
      <stop offset=".16" stop-color="#0065fe"/>
      <stop offset=".38" stop-color="#0078fe"/>
      <stop offset=".65" stop-color="#0097fd"/>
      <stop offset=".95" stop-color="#00c2fc"/>
      <stop offset="1" stop-color="#00cbfc"/>
    </linearGradient>
    <linearGradient id="linear-gradient-3" x1="736.77" y1="579.69" x2="818.1" y2="540.95" gradientUnits="userSpaceOnUse">
      <stop offset="0" stop-color="#005dfc"/>
      <stop offset=".21" stop-color="#007afc"/>
      <stop offset=".56" stop-color="#00a5fc"/>
      <stop offset=".84" stop-color="#00c0fc"/>
      <stop offset="1" stop-color="#01cafc"/>
    </linearGradient>
    <linearGradient id="linear-gradient-4" x1="104.62" y1="560.58" x2="173.31" y2="560.58" gradientUnits="userSpaceOnUse">
      <stop offset="0" stop-color="#016cfe"/>
      <stop offset="1" stop-color="#00cbfc"/>
    </linearGradient>
    <linearGradient id="linear-gradient-5" x1="317.99" y1="334.9" x2="678.57" y2="222.87" gradientUnits="userSpaceOnUse">
      <stop offset="0" stop-color="#0162fe"/>
      <stop offset=".13" stop-color="#006cfe"/>
      <stop offset=".35" stop-color="#008afe"/>
      <stop offset=".5" stop-color="#00a1fe"/>
      <stop offset=".81" stop-color="#00c8fa"/>
      <stop offset=".89" stop-color="#00d3f9"/>
    </linearGradient>
    <linearGradient id="linear-gradient-6" x1="354.44" y1="449.02" x2="596.61" y2="373.78" xlink:href="#linear-gradient-5"/>
    <linearGradient id="linear-gradient-7" x1="256.01" y1="216" x2="711.07" y2="74.62" xlink:href="#linear-gradient-5"/>
    <linearGradient id="linear-gradient-8" x1="686.64" y1="306.69" x2="773.8" y2="279.61" xlink:href="#linear-gradient-5"/>
  </defs>
  <g id="tagline">
    <g>
      <path d="M80.93,666.05c-1.48,0-2.88-.21-4.23-.63s-2.42-.97-3.23-1.63l1.21-2.73c.76.59,1.69,1.09,2.81,1.48,1.12.4,2.26.59,3.43.59.99,0,1.79-.11,2.4-.32.61-.22,1.06-.51,1.35-.88.29-.37.43-.79.43-1.25,0-.58-.21-1.04-.62-1.39-.41-.35-.95-.63-1.61-.84s-1.39-.4-2.19-.57c-.8-.17-1.6-.38-2.4-.63-.8-.25-1.54-.57-2.2-.96-.67-.39-1.2-.9-1.61-1.55-.41-.65-.61-1.48-.61-2.48s.27-1.97.82-2.82c.55-.85,1.39-1.54,2.51-2.05s2.55-.77,4.28-.77c1.13,0,2.26.14,3.38.43,1.12.29,2.09.7,2.92,1.24l-1.11,2.73c-.85-.5-1.72-.88-2.62-1.12-.9-.24-1.76-.36-2.59-.36-.95,0-1.74.12-2.35.35-.61.23-1.06.54-1.34.93-.28.39-.42.81-.42,1.28,0,.58.2,1.04.61,1.39.41.35.94.63,1.59.82.66.2,1.39.39,2.2.57.81.18,1.61.39,2.4.63.79.24,1.52.56,2.19.95.67.39,1.2.9,1.61,1.54s.61,1.45.61,2.44-.27,1.94-.82,2.79c-.55.86-1.39,1.54-2.52,2.05-1.13.51-2.57.77-4.29.77Z" fill="#fff"/>
      <path d="M111.41,666.05c-1.46,0-2.81-.24-4.06-.73s-2.33-1.17-3.25-2.05-1.63-1.91-2.13-3.09-.76-2.46-.76-3.85.25-2.7.76-3.87,1.22-2.21,2.13-3.08,2-1.55,3.24-2.04c1.24-.49,2.6-.73,4.08-.73s2.81.24,4.05.72c1.24.48,2.32,1.15,3.23,2.02s1.62,1.9,2.12,3.09c.5,1.19.76,2.48.76,3.89s-.25,2.7-.76,3.88c-.5,1.18-1.21,2.21-2.12,3.09-.91.88-1.98,1.56-3.23,2.04-1.24.48-2.59.71-4.05.71ZM111.41,662.97c.95,0,1.83-.16,2.63-.49s1.5-.78,2.09-1.38c.59-.59,1.06-1.3,1.39-2.11.33-.81.5-1.7.5-2.67s-.16-1.86-.49-2.67c-.32-.81-.79-1.51-1.39-2.11-.6-.59-1.3-1.05-2.11-1.38-.8-.32-1.68-.49-2.63-.49s-1.84.16-2.66.49c-.82.32-1.53.79-2.12,1.39-.59.6-1.06,1.31-1.4,2.11-.34.8-.51,1.69-.51,2.66s.17,1.84.51,2.65c.34.81.81,1.52,1.4,2.12.59.6,1.3,1.07,2.12,1.39.82.32,1.71.49,2.66.49Z" fill="#fff"/>
      <path d="M135.79,665.78v-18.9h13.8v2.97h-10.29v15.93h-3.51ZM139.03,658.52v-2.92h9.4v2.92h-9.4Z" fill="#fff"/>
      <path d="M167.46,665.78v-15.93h-6.26v-2.97h16.04v2.97h-6.26v15.93h-3.51Z" fill="#fff"/>
      <path d="M194.57,665.78l-6.26-18.9h3.65l5.59,17.09h-1.81l5.81-17.09h3.24l5.64,17.09h-1.75l5.72-17.09h3.35l-6.26,18.9h-3.73l-5.16-15.42h.97l-5.21,15.42h-3.78Z" fill="#fff"/>
      <path d="M227.83,665.78l8.5-18.9h3.46l8.53,18.9h-3.7l-7.29-17.04h1.4l-7.32,17.04h-3.59ZM231.75,661.41l.97-2.75h10.18l.94,2.75h-12.1Z" fill="#fff"/>
      <path d="M261.23,665.78v-18.9h7.75c2.52,0,4.5.6,5.93,1.8s2.15,2.84,2.15,4.93c0,1.39-.32,2.57-.97,3.56-.65.99-1.57,1.75-2.77,2.29-1.2.54-2.63.81-4.31.81h-5.81l1.54-1.57v7.07h-3.51ZM264.74,659.08l-1.54-1.7h5.64c1.55,0,2.71-.33,3.5-1,.78-.67,1.17-1.59,1.17-2.78s-.39-2.11-1.17-2.77c-.78-.66-1.95-.99-3.5-.99h-5.64l1.54-1.73v10.96ZM273.6,665.78l-4.78-6.86h3.75l4.81,6.86h-3.78Z" fill="#fff"/>
      <path d="M291.47,665.78v-18.9h13.8v2.97h-10.29v12.96h10.67v2.97h-14.17ZM294.71,657.63v-2.89h9.4v2.89h-9.4Z" fill="#fff"/>
      <path d="M321.12,665.97c-.63,0-1.16-.21-1.59-.63-.43-.42-.65-.97-.65-1.63s.22-1.2.65-1.61c.43-.41.96-.61,1.59-.61.59,0,1.11.2,1.54.61s.65.94.65,1.61-.22,1.21-.65,1.63-.95.63-1.54.63Z" fill="#fff"/>
      <path d="M352.71,665.78l8.5-18.9h3.46l8.53,18.9h-3.7l-7.29-17.04h1.4l-7.32,17.04h-3.59ZM356.62,661.41l.97-2.75h10.18l.95,2.75h-12.1Z" fill="#fff"/>
      <path d="M393.8,666.05c-2.58,0-4.59-.73-6.06-2.19-1.47-1.46-2.2-3.57-2.2-6.34v-10.64h3.51v10.53c0,1.94.42,3.36,1.25,4.24s2.02,1.32,3.55,1.32,2.71-.44,3.54-1.32c.83-.88,1.24-2.29,1.24-4.24v-10.53h3.46v10.64c0,2.77-.73,4.89-2.2,6.34s-3.5,2.19-6.09,2.19Z" fill="#fff"/>
      <path d="M420.99,665.78v-15.93h-6.26v-2.97h16.04v2.97h-6.26v15.93h-3.51Z" fill="#fff"/>
      <path d="M452.5,666.05c-1.46,0-2.81-.24-4.06-.73-1.25-.49-2.34-1.17-3.25-2.05s-1.63-1.91-2.13-3.09-.76-2.46-.76-3.85.25-2.7.76-3.87,1.21-2.21,2.13-3.08,2-1.55,3.24-2.04c1.24-.49,2.6-.73,4.08-.73s2.81.24,4.05.72c1.24.48,2.32,1.15,3.23,2.02.91.87,1.62,1.9,2.12,3.09.5,1.19.76,2.48.76,3.89s-.25,2.7-.76,3.88-1.21,2.21-2.12,3.09c-.91.88-1.98,1.56-3.23,2.04s-2.59.71-4.05.71ZM452.5,662.97c.95,0,1.83-.16,2.63-.49s1.5-.78,2.09-1.38,1.06-1.3,1.39-2.11c.33-.81.5-1.7.5-2.67s-.16-1.86-.49-2.67-.79-1.51-1.39-2.11c-.6-.59-1.31-1.05-2.11-1.38-.8-.32-1.68-.49-2.63-.49s-1.84.16-2.66.49c-.82.32-1.53.79-2.12,1.39-.59.6-1.06,1.31-1.4,2.11s-.51,1.69-.51,2.66.17,1.84.51,2.65c.34.81.81,1.52,1.4,2.12.59.6,1.3,1.07,2.12,1.39s1.71.49,2.66.49Z" fill="#fff"/>
      <path d="M476.88,665.78v-18.9h2.89l8.26,13.8h-1.51l8.13-13.8h2.89l.05,18.9h-3.38v-13.69h.67l-6.86,11.56h-1.59l-7.02-11.56h.81v13.69h-3.35Z" fill="#fff"/>
      <path d="M510.49,665.78l8.5-18.9h3.46l8.53,18.9h-3.7l-7.29-17.04h1.4l-7.32,17.04h-3.59ZM514.41,661.41l.97-2.75h10.18l.94,2.75h-12.1Z" fill="#fff"/>
      <path d="M546.78,665.78v-15.93h-6.26v-2.97h16.04v2.97h-6.27v15.93h-3.51Z" fill="#fff"/>
      <path d="M569.7,665.78v-18.9h3.51v18.9h-3.51Z" fill="#fff"/>
      <path d="M597.68,666.05c-1.46,0-2.81-.24-4.06-.73s-2.33-1.17-3.25-2.05-1.63-1.91-2.13-3.09c-.5-1.18-.76-2.46-.76-3.85s.25-2.7.76-3.87c.5-1.18,1.21-2.21,2.13-3.08s2-1.55,3.24-2.04c1.24-.49,2.6-.73,4.08-.73s2.81.24,4.05.72c1.24.48,2.32,1.15,3.23,2.02.91.87,1.62,1.9,2.12,3.09.5,1.19.76,2.48.76,3.89s-.25,2.7-.76,3.88-1.21,2.21-2.12,3.09c-.91.88-1.99,1.56-3.23,2.04-1.24.48-2.59.71-4.05.71ZM597.68,662.97c.95,0,1.83-.16,2.63-.49s1.5-.78,2.09-1.38,1.06-1.3,1.39-2.11c.33-.81.5-1.7.5-2.67s-.16-1.86-.49-2.67c-.32-.81-.79-1.51-1.39-2.11-.6-.59-1.31-1.05-2.11-1.38-.8-.32-1.68-.49-2.63-.49s-1.84.16-2.66.49c-.82.32-1.53.79-2.12,1.39-.59.6-1.06,1.31-1.4,2.11s-.51,1.69-.51,2.66.17,1.84.51,2.65c.34.81.81,1.52,1.4,2.12.59.6,1.3,1.07,2.12,1.39s1.71.49,2.66.49Z" fill="#fff"/>
      <path d="M622.06,665.78v-18.9h2.89l11.85,14.58h-1.43v-14.58h3.46v18.9h-2.89l-11.83-14.58h1.43v14.58h-3.48Z" fill="#fff"/>
      <path d="M655.21,665.97c-.63,0-1.16-.21-1.59-.63-.43-.42-.65-.97-.65-1.63s.22-1.2.65-1.61c.43-.41.96-.61,1.59-.61.59,0,1.11.2,1.54.61.43.41.65.94.65,1.61s-.22,1.21-.65,1.63c-.43.42-.95.63-1.54.63Z" fill="#fff"/>
      <path d="M689.48,665.78v-18.9h13.8v2.97h-10.29v12.96h10.67v2.97h-14.17ZM692.72,657.63v-2.89h9.4v2.89h-9.4Z" fill="#fff"/>
      <path d="M718.07,665.78v-18.9h2.89l11.85,14.58h-1.43v-14.58h3.46v18.9h-2.89l-11.83-14.58h1.43v14.58h-3.48Z" fill="#fff"/>
      <path d="M759.27,666.05c-1.48,0-2.83-.24-4.06-.71-1.23-.48-2.31-1.16-3.23-2.04-.92-.88-1.63-1.91-2.13-3.08-.5-1.17-.76-2.47-.76-3.89s.25-2.72.76-3.89c.5-1.17,1.22-2.2,2.15-3.08.93-.88,2.01-1.56,3.24-2.04,1.23-.48,2.61-.72,4.12-.72s3.02.26,4.31.78c1.29.52,2.37,1.29,3.25,2.29l-2.21,2.16c-.74-.74-1.54-1.28-2.39-1.63s-1.79-.53-2.82-.53-1.93.16-2.77.49c-.84.32-1.56.78-2.17,1.38-.61.59-1.09,1.3-1.43,2.11s-.51,1.7-.51,2.67.17,1.84.51,2.66c.34.82.82,1.53,1.43,2.12.61.59,1.33,1.05,2.16,1.38s1.75.49,2.75.49c.94,0,1.84-.15,2.71-.45.87-.3,1.71-.8,2.5-1.5l1.97,2.62c-.97.79-2.11,1.39-3.4,1.79-1.3.41-2.62.61-3.97.61ZM766.64,663.65l-3.29-.46v-7.05h3.29v7.51Z" fill="#fff"/>
      <path d="M781.79,665.78v-18.9h3.51v18.9h-3.51Z" fill="#fff"/>
      <path d="M800.9,665.78v-18.9h2.89l11.85,14.58h-1.43v-14.58h3.46v18.9h-2.89l-11.83-14.58h1.43v14.58h-3.48Z" fill="#fff"/>
      <path d="M833.28,665.78v-18.9h13.8v2.97h-10.29v12.96h10.67v2.97h-14.17ZM836.52,657.63v-2.89h9.4v2.89h-9.4Z" fill="#fff"/>
      <path d="M861.87,665.78v-18.9h13.8v2.97h-10.29v12.96h10.67v2.97h-14.17ZM865.11,657.63v-2.89h9.4v2.89h-9.4Z" fill="#fff"/>
      <path d="M890.46,665.78v-18.9h7.75c2.52,0,4.5.6,5.93,1.8,1.43,1.2,2.15,2.84,2.15,4.93,0,1.39-.32,2.57-.97,3.56-.65.99-1.57,1.75-2.77,2.29s-2.63.81-4.31.81h-5.81l1.54-1.57v7.07h-3.51ZM893.97,659.08l-1.54-1.7h5.64c1.55,0,2.71-.33,3.5-1,.78-.67,1.17-1.59,1.17-2.78s-.39-2.11-1.17-2.77-1.95-.99-3.5-.99h-5.64l1.54-1.73v10.96ZM902.83,665.78l-4.78-6.86h3.75l4.81,6.86h-3.78Z" fill="#fff"/>
      <path d="M920.7,665.78v-18.9h3.51v18.9h-3.51Z" fill="#fff"/>
      <path d="M939.82,665.78v-18.9h2.89l11.85,14.58h-1.43v-14.58h3.46v18.9h-2.89l-11.83-14.58h1.43v14.58h-3.48Z" fill="#fff"/>
      <path d="M981.02,666.05c-1.48,0-2.83-.24-4.06-.71-1.23-.48-2.31-1.16-3.23-2.04-.92-.88-1.63-1.91-2.13-3.08-.5-1.17-.76-2.47-.76-3.89s.25-2.72.76-3.89c.5-1.17,1.22-2.2,2.15-3.08.93-.88,2.01-1.56,3.24-2.04,1.23-.48,2.61-.72,4.12-.72s3.02.26,4.31.78c1.29.52,2.37,1.29,3.25,2.29l-2.21,2.16c-.74-.74-1.54-1.28-2.39-1.63s-1.79-.53-2.82-.53-1.93.16-2.77.49c-.84.32-1.56.78-2.17,1.38-.61.59-1.09,1.3-1.43,2.11s-.51,1.7-.51,2.67.17,1.84.51,2.66c.34.82.82,1.53,1.43,2.12.61.59,1.33,1.05,2.16,1.38s1.75.49,2.75.49c.94,0,1.84-.15,2.71-.45.87-.3,1.71-.8,2.5-1.5l1.97,2.62c-.97.79-2.11,1.39-3.4,1.79-1.3.41-2.62.61-3.97.61ZM988.39,663.65l-3.29-.46v-7.05h3.29v7.51Z" fill="#fff"/>
      <path d="M1004.59,665.97c-.63,0-1.16-.21-1.59-.63-.43-.42-.65-.97-.65-1.63s.22-1.2.65-1.61c.43-.41.96-.61,1.59-.61.59,0,1.11.2,1.54.61.43.41.65.94.65,1.61s-.22,1.21-.65,1.63c-.43.42-.95.63-1.54.63Z" fill="#fff"/>
    </g>
  </g>
  <g id="wordmark-labs">
    <path d="M968.56,559.45c3.98,4.53,7.94,10.49,5.33,17.69-1.72,4.76-6.66,11.06-13.68,11.13l-41.62.43v-56.66s40.75.22,40.75.22c6.57.04,11.14,5.44,13.18,9.64,3.26,6.72-.27,12.74-3.96,17.55ZM958.26,555.65c4.38-.04,6.93-5.01,6.79-7.67-.22-3.91-3.29-6.88-7.54-6.9l-29.93-.16.02,15.01,30.66-.28ZM958.31,579.6c5.29-.03,7.97-4.74,7.47-8.76s-3.75-6.88-8.24-6.86l-29.82.09-.25,15.7,30.84-.18ZM1053.57,572.3c.26-8.57-5.46-15.62-14.41-15.85l-20.55-.53c-4.07-.11-7.19-2.79-7.67-6.4-.4-3.03,1.9-7.48,5.67-8.11,11.72-1.94,22.8-.59,34.94.82l-.17-8.73c-12.59-1.44-25.38-3.01-36.11-.55-8.43,1.93-13.86,9.14-13.31,16.81.53,7.38,6.53,14.07,14.85,14.27l19.65.48c4.99.12,8.49,2.63,8.52,7.37.02,3.42-4.96,7.77-8.74,8.25-8.22,1.04-15.42.9-30.94-2.09-1.16,2.34-2.24,5.54-3.11,7.95,7.77,2.2,13.31,2.37,20.31,2.78s12.6,0,17.11-1.19,13.73-7.44,13.96-15.28Z" fill="url(#linear-gradient)"/>
    <path d="M875.03,575.14l-30.63-.19-6.47,13.3c-2.75.03-6.23,0-9.91-.02l27.78-55.64,8.29-.1,27.53,56.12-10.18.04-6.42-13.51ZM870.97,566.79l-11.14-22.54-10.87,22.72,22-.18Z" fill="url(#linear-gradient-2)"/>
    <polygon points="801.7 579.52 801.75 588.64 752.88 588.66 752.85 532.13 761.9 532.14 761.87 579.61 801.7 579.52" fill="url(#linear-gradient-3)"/>
  </g>
  <g id="wordmark-hazzlee">
    <polygon points="62.82 591.24 52.84 591.21 52.82 564.92 10.02 564.93 9.97 591.18 .01 591.19 0 529.37 9.89 529.35 10.07 555.62 52.78 555.63 52.8 529.42 62.8 529.35 62.82 591.24" fill="#fff"/>
    <path d="M161.71,591.33l-22.76-47.16-23.12,46.61c-3.66.05-7.07.06-11.21.04l30.36-60.84c2.34-.03,5.51-.14,7.82-.15l30.51,61.31-11.6.2Z" fill="url(#linear-gradient-4)"/>
    <polygon points="478.56 582.09 478.69 591.33 424.06 591.33 424.29 529.26 433.81 529.28 433.87 582.03 478.56 582.09" fill="#fff"/>
    <polygon points="569.75 564.84 531.18 564.9 531.18 581.97 578.34 581.94 578.44 591.24 521.54 591.28 521.53 529.35 578.34 529.31 578.28 538.86 531.25 538.85 531.23 555.62 569.69 555.43 569.75 564.84" fill="#fff"/>
    <polygon points="670.12 564.85 631.17 564.92 631.18 581.97 678.76 581.93 678.79 591.26 621.31 591.24 621.27 529.34 678.78 529.33 678.79 538.83 631.16 538.86 631.2 555.56 670.17 555.66 670.12 564.85" fill="#fff"/>
    <path d="M378.71,591.25l-57.58.03.02-7.85,41.53-44.45-41.56-.19-.21-9.48,56.78.06-.23,8.22-41.66,44.31,42.83.19.07,9.15Z" fill="#fff"/>
    <polygon points="275.54 591.53 218.13 591.55 218.29 583.57 259.57 539.21 218.13 539.09 218.01 529.62 274.76 529.6 274.88 537.36 232.71 582.09 275.57 582.36 275.54 591.53" fill="#fff"/>
  </g>
  <g id="icon-monogram">
    <path d="M621.52,97.81l-52-.13-41.4,91.18-89.7-.12,41.35-91.05h-51.64s-41.41,90.82-41.41,90.82l-61.16,134.85,51.22.07,40.22-87.95,90.05.21-39.72,87.61,50.66.22,103.54-225.72ZM578.93,372.97l79.25-164.88h-55.7s-71.86,150.17-71.86,150.17l-28.21,59.84,201.05.02,22.64-45.12-147.17-.04Z" fill="url(#linear-gradient-5)"/>
  </g>
  <g id="icon-ring">
    <path d="M567.12,444.88l51.84-1.06c-49.42,21.65-104.92,26.18-157.14,12.52-48.53-12.7-90.82-41.21-122.43-79.86,1.01-.74,3.26-1.97,4.82-2.83,42.85,42.33,98,68.27,158.14,73.9,21.98,1.52,42.63.54,64.78-2.66Z" fill="url(#linear-gradient-6)"/>
    <path d="M742.79,209.44c1.35-.12,3.1-.35,4.7-.55-4.77-72.61-44.86-138.03-106.83-175.32-90.85-54.67-208.04-41.34-285.67,31.09-36.3,33.86-59.38,80.52-66.43,129.99-11.91,3.39-19.19,14.38-16.88,26.05,2.2,11.18,12.5,19.09,24.44,17.81,10.2-1.1,18.12-9.2,19.53-18.56,1.5-9.97-3.36-19.74-12.8-23.94,2.17-17.52,7.07-33.71,13.98-50.22C362.48,36.58,491.82-12.85,600.62,28.27c77.63,29.34,132.37,98.77,142.17,181.17Z" fill="url(#linear-gradient-7)"/>
    <path d="M719.48,351.83c12.73-23.32,22.2-47.3,26.67-73.4,11.38-1.43,19.21-10.16,19.72-20.38.55-10.87-6.7-20.21-17.4-22.55-11.33-2.47-21.93,3.02-25.68,13.19-3.8,10.3-.6,21.66,10.04,27.11l-7.55,29.66c-5.76,16.45-13.43,30.87-21.96,46.26l16.15.11Z" fill="url(#linear-gradient-8)"/>
  </g>
</svg>